G05
M48
INCH,TZ
FMAT,2
T1C000.01969
T2C000.02400
T3C000.02677
T4C000.02874
T5C000.02953
T6C000.02988
T7C000.03087
T8C000.03150
T9C000.03189
T10C000.03346
T11C000.03500
T12C000.03740
T13C000.03898
T14C000.06360
T15C000.07470
T16C000.12600
%
T001
X5.34100Y1.97100
X5.35041Y2.03644
X5.35043Y1.90551
X5.37787Y2.09658
X5.37790Y1.84538
X5.42117Y2.14654
X5.42120Y1.79542
X5.47678Y2.18229
X5.47683Y1.75969
X5.54021Y2.20092
X5.54027Y1.74107
X5.60633Y2.20092
X5.60638Y1.74109
X5.66976Y2.18230
X5.66981Y1.75972
X5.72538Y2.14656
X5.72542Y1.79548
X5.76868Y2.09660
X5.76871Y1.84544
X5.79615Y2.03646
X5.79617Y1.90559
X5.80557Y1.97103
T002
X0.07100Y2.07100
X0.17600Y0.45600
X0.40100Y0.28600
X0.40600Y0.83600
X0.41600Y1.71600
X0.46100Y0.06600
X0.46100Y0.45600
X1.05600Y0.95600
X1.14600Y0.26600
X1.26100Y0.49100
X1.30600Y0.95600
X1.40600Y1.25600
X1.54600Y0.49100
X1.54600Y1.56100
X1.57600Y1.97600
X1.60600Y0.06600
X1.61100Y1.11600
X1.73100Y2.13100
X1.78600Y1.25600
X1.90100Y1.56100
X1.96100Y0.76100
X1.97600Y0.06600
X1.99100Y1.11600
X2.08100Y0.06600
X2.08100Y1.45600
X2.18600Y0.06600
X2.18600Y1.25600
X2.27100Y0.99100
X2.28600Y0.17576
X2.33100Y1.25600
X2.35100Y1.48100
X2.48100Y0.93100
X2.48600Y0.76100
X2.57100Y1.25600
X2.60600Y2.15600
X2.70100Y1.25600
X2.79100Y0.48600
X2.84100Y0.54100
X2.86600Y1.50100
X2.88100Y1.18100
X2.88100Y1.80600
X2.90100Y0.17100
X2.90100Y0.71100
X2.96600Y1.58100
X2.98100Y1.88100
X3.00600Y1.13100
X3.01100Y0.41600
X3.07600Y1.40600
X3.10100Y0.54100
X3.17100Y2.15600
X3.20100Y0.06600
X3.21100Y0.48600
X3.28100Y1.30600
X3.28100Y2.05600
X3.36600Y0.71100
X3.38100Y1.25600
X3.38100Y1.98100
X3.47100Y1.30600
X3.48100Y2.10600
X3.49600Y0.45600
X3.51100Y0.06600
X3.65600Y0.06600
X3.65600Y2.15600
X3.70600Y0.43100
X3.74600Y0.75100
X3.78100Y1.93100
X3.81100Y0.52100
X3.87100Y1.13100
X3.90600Y0.32600
X3.97100Y1.18100
X4.05600Y1.10600
X4.13100Y1.59100
X4.14600Y1.73100
X4.35100Y0.36600
X4.78100Y1.18100
X5.05100Y0.27100
X5.05100Y0.41100
X5.05600Y1.80600
X5.08100Y1.65600
X5.10600Y1.88100
X5.15600Y1.93100
X5.15600Y2.03644
X5.17100Y0.06600
X5.18100Y1.58100
X5.18600Y0.99100
X5.23100Y1.18100
X5.23100Y1.97100
X5.28100Y1.73100
X5.35600Y1.23100
X5.35600Y1.73100
X5.40100Y1.54100
X5.43238Y0.06600
X5.45600Y1.47600
X5.54600Y1.65600
X5.57100Y1.43600
X5.63100Y1.10600
X5.65600Y1.44100
X5.72542Y1.30600
X5.78100Y1.55600
X5.78100Y2.23100
X5.85600Y0.70600
X5.85600Y2.28100
X6.13100Y0.06600
X6.18100Y1.35600
X6.18100Y1.98100
X6.24100Y1.18100
X6.24100Y1.81100
X6.24100Y1.89600
X6.31600Y0.06600
T003
X0.17100Y0.19100
X0.17600Y2.27600
X0.22100Y0.24100
X0.22600Y2.22600
X0.27100Y0.19100
X0.27600Y2.27600
T004
X2.18600Y0.33470
X2.18600Y0.64730
X2.28600Y0.33470
X2.28600Y0.64730
X2.38600Y0.33470
X2.38600Y0.64730
X2.48600Y0.33470
X2.48600Y0.64730
T005
X1.06100Y0.28415
X1.06100Y0.48100
X1.73100Y1.78600
X1.73100Y2.24663
X1.91100Y2.12415
X1.91100Y2.32100
X1.97600Y0.42415
X1.97600Y0.62100
X3.36100Y0.40600
X3.36100Y0.60285
X6.03100Y2.18100
X6.22785Y2.18100
T006
X2.90100Y0.33226
X2.90100Y0.63974
X3.00100Y0.33226
X3.00100Y0.63974
X3.10100Y0.33226
X3.10100Y0.63974
X3.20100Y0.33226
X3.20100Y0.63974
T007
X2.67100Y1.66600
X2.67100Y2.26600
X2.77100Y1.66600
X2.77100Y2.26600
X2.87100Y1.66600
X2.87100Y2.26600
X2.97100Y1.66600
X2.97100Y2.26600
X3.07100Y1.66600
X3.07100Y2.26600
X3.17100Y1.66600
X3.17100Y2.26600
X3.27100Y1.66600
X3.27100Y2.26600
X3.37100Y1.66600
X3.37100Y2.26600
X3.47100Y1.66600
X3.47100Y2.26600
X3.57100Y1.66600
X3.57100Y2.26600
X3.67100Y1.66600
X3.67100Y2.26600
X3.77100Y1.66600
X3.77100Y2.26600
X3.87100Y1.66600
X3.87100Y2.26600
X3.97100Y1.66600
X3.97100Y2.26600
T008
X1.05600Y1.71600
X1.05600Y2.32624
X1.22100Y1.71100
X1.22100Y2.32124
X1.26100Y0.17100
X1.26100Y0.83635
X1.57600Y1.66565
X1.57600Y2.33100
X1.61100Y0.19076
X1.61100Y0.80100
X1.78600Y0.19576
X1.78600Y0.80600
X2.70100Y0.17600
X2.70100Y0.84135
X3.51100Y0.20576
X3.51100Y0.81600
X6.11100Y1.68415
X6.11100Y1.88100
T009
X1.90600Y1.78600
X1.90600Y1.98600
X2.35100Y1.89600
X2.35100Y2.09600
T010
X1.40600Y1.72257
X1.40600Y2.32100
X1.43600Y0.18002
X1.43600Y0.80600
X2.13100Y1.70600
X2.13100Y2.33198
X3.65600Y0.19600
X3.65600Y0.82198
X4.26100Y0.33600
X4.26100Y0.53100
X4.88698Y0.33600
X4.88698Y0.53100
T011
X5.17100Y0.30100
X5.17100Y0.40100
X5.17100Y0.50100
X5.43238Y0.30100
X5.63238Y0.30100
X6.23238Y0.30100
X6.43238Y0.30100
T012
X0.58100Y0.30600
X0.58600Y2.16600
X0.78100Y0.30600
X0.78600Y2.16600
T013
X3.81100Y0.21883
X3.81100Y0.39600
X3.82100Y0.62383
X3.82100Y0.80100
X4.06691Y0.21883
X4.06691Y0.39600
X4.07691Y0.62383
X4.07691Y0.80100
T014
X6.40167Y1.78612
X6.40167Y2.17588
T015
X6.55915Y1.78612
X6.55915Y2.17588
T016
X0.27600Y0.60600
X0.27600Y1.88100
X4.44100Y0.87100
X4.44600Y1.64100
X4.94100Y0.87100
X4.94100Y1.63600
X5.58100Y1.98100
M30
