G04 DesignSpark PCB Gerber Version 9.0 Build 5138 *
%FSLAX35Y35*%
%MOIN*%
%ADD123R,0.04449X0.04449*%
%ADD130R,0.04528X0.04528*%
%ADD121R,0.04563X0.04563*%
%ADD119R,0.04661X0.04661*%
%ADD133R,0.04724X0.04724*%
%ADD135R,0.06000X0.06000*%
%ADD116C,0.00800*%
%ADD117C,0.02000*%
%ADD14C,0.03937*%
%ADD91C,0.04000*%
%ADD134C,0.04331*%
%ADD124C,0.04449*%
%ADD131C,0.04528*%
%ADD122C,0.04563*%
%ADD120C,0.04661*%
%ADD127C,0.04724*%
%ADD128C,0.05020*%
%ADD129C,0.05181*%
%ADD126C,0.05819*%
%ADD12C,0.06000*%
%ADD125R,0.04331X0.01772*%
%ADD132C,0.06063*%
%ADD98C,0.09539*%
%ADD99C,0.11205*%
%ADD118C,0.15000*%
X0Y0D02*
D02*
D12*
X543238Y30100D03*
X563238D03*
X623238D03*
X643238D03*
D02*
D14*
X534100Y197100D03*
X535041Y203644D03*
X535043Y190551D03*
X537787Y209658D03*
X537790Y184538D03*
X542117Y214654D03*
X542120Y179542D03*
X547678Y218229D03*
X547683Y175969D03*
X554021Y220092D03*
X554027Y174107D03*
X560633Y220092D03*
X560638Y174109D03*
X566976Y218230D03*
X566981Y175972D03*
X572538Y214656D03*
X572542Y179548D03*
X576868Y209660D03*
X576871Y184544D03*
X579615Y203646D03*
X579617Y190559D03*
X580557Y197103D03*
D02*
D91*
X7100Y207100D03*
X17600Y45600D03*
X40100Y28600D03*
X40600Y83600D03*
X41600Y171600D03*
X46100Y6600D03*
Y45600D03*
X105600Y95600D03*
X114600Y26600D03*
X126100Y49100D03*
X130600Y95600D03*
X140600Y125600D03*
X154600Y49100D03*
Y156100D03*
X157600Y197600D03*
X160600Y6600D03*
X161100Y111600D03*
X173100Y213100D03*
X178600Y125600D03*
X190100Y156100D03*
X196100Y76100D03*
X197600Y6600D03*
X199100Y111600D03*
X208100Y6600D03*
Y145600D03*
X218600Y6600D03*
Y125600D03*
X227100Y99100D03*
X228600Y17576D03*
X233100Y125600D03*
X235100Y148100D03*
X248100Y93100D03*
X248600Y76100D03*
X257100Y125600D03*
X260600Y215600D03*
X270100Y125600D03*
X279100Y48600D03*
X284100Y54100D03*
X286600Y150100D03*
X288100Y118100D03*
Y180600D03*
X290100Y17100D03*
Y71100D03*
X296600Y158100D03*
X298100Y188100D03*
X300600Y113100D03*
X301100Y41600D03*
X307600Y140600D03*
X310100Y54100D03*
X317100Y215600D03*
X320100Y6600D03*
X321100Y48600D03*
X328100Y130600D03*
Y205600D03*
X336600Y71100D03*
X338100Y125600D03*
Y198100D03*
X347100Y130600D03*
X348100Y210600D03*
X349600Y45600D03*
X351100Y6600D03*
X365600D03*
Y215600D03*
X370600Y43100D03*
X374600Y75100D03*
X378100Y193100D03*
X381100Y52100D03*
X387100Y113100D03*
X390600Y32600D03*
X397100Y118100D03*
X405600Y110600D03*
X413100Y159100D03*
X414600Y173100D03*
X435100Y36600D03*
X478100Y118100D03*
X505100Y27100D03*
Y41100D03*
X505600Y180600D03*
X508100Y165600D03*
X510600Y188100D03*
X515600Y193100D03*
Y203644D03*
X517100Y6600D03*
X518100Y158100D03*
X518600Y99100D03*
X523100Y118100D03*
Y197100D03*
X528100Y173100D03*
X535600Y123100D03*
Y173100D03*
X540100Y154100D03*
X543238Y6600D03*
X545600Y147600D03*
X554600Y165600D03*
X557100Y143600D03*
X563100Y110600D03*
X565600Y144100D03*
X572542Y130600D03*
X578100Y155600D03*
Y223100D03*
X585600Y70600D03*
Y228100D03*
X613100Y6600D03*
X618100Y135600D03*
Y198100D03*
X624100Y118100D03*
Y181100D03*
Y189600D03*
X631600Y6600D03*
D02*
D98*
X640167Y178612D03*
Y217588D03*
D02*
D99*
X655915Y178612D03*
Y217588D03*
D02*
D116*
X238600Y33470D02*
Y28100D01*
X242100Y24600*
X307600*
X248600Y76100D02*
X196100D01*
X279100Y48600D02*
X321100D01*
X284100Y54100D02*
X310100D01*
X290100Y17100D02*
X270600D01*
X270100Y17600*
X301100Y41600D02*
X327600D01*
X333600Y47600*
X347600*
X349600Y45600*
X307600Y24600D02*
X342100D01*
X344600Y27100*
X505100*
X307600Y24600D02*
X310100Y27100D01*
Y33226*
X349600Y45600D02*
X368100D01*
X370600Y43100*
X351100Y81600D02*
X351600D01*
X358100Y75100*
X374600*
X365600Y82198D02*
X380002D01*
X382100Y80100*
X381100Y52100D02*
X425100D01*
X426100Y53100*
X387100Y113100D02*
X300600D01*
X390600Y32600D02*
X425100D01*
X426100Y33600*
X488698D02*
X438100D01*
X435100Y36600*
X505100Y41100D02*
X516100D01*
X517100Y40100*
D02*
D117*
X7100Y207100D02*
X49100D01*
X58600Y216600*
X17600Y45600D02*
X46100D01*
X22100Y24100D02*
Y25100D01*
X25600Y28600*
X40100*
X27600Y227600D02*
X47600D01*
X58600Y216600*
X40600Y83600D02*
X126065D01*
X126100Y83635*
X46100Y6600D02*
X33600Y19100D01*
X27100*
X58600Y216600D02*
X74100Y232100D01*
X105076*
X105600Y232624*
X70600Y6600D02*
X46100D01*
X70600D02*
X58100Y19100D01*
Y30600*
X78600Y216600D02*
X169600D01*
X173100Y213100*
X105600Y95600D02*
X130600D01*
X105600Y171600D02*
X41600D01*
X105600Y232624D02*
X121600D01*
X122100Y232124*
X106100Y28415D02*
X80285D01*
X78100Y30600*
X122100Y232124D02*
X140576D01*
X140600Y232100*
X126100Y49100D02*
X154600D01*
X140600Y232100D02*
X156600D01*
X157600Y233100*
X143600Y18002D02*
Y20600D01*
X137600Y26600*
X114600*
X154600Y156100D02*
X190100D01*
X157600Y197600D02*
X189600D01*
X190600Y198600*
X157600Y233100D02*
X164663D01*
X173100Y224663*
X160600Y6600D02*
X70600D01*
X173100Y224663D02*
X183663D01*
X191100Y232100*
X178600Y19576D02*
X228600D01*
Y17576*
X178600Y125600D02*
X140600D01*
X190600Y198600D02*
X226100D01*
X235100Y189600*
X197600Y6600D02*
X160600D01*
X199100Y111600D02*
X161100D01*
X208100Y6600D02*
X197600D01*
X213100Y170600D02*
X181100D01*
X173100Y178600*
X218600Y6600D02*
X208100D01*
X218600Y125600D02*
X178600D01*
X227100Y99100D02*
X518600D01*
X233100Y125600D02*
X218600D01*
X235100Y148100D02*
X210600D01*
X208100Y145600*
X257100Y125600D02*
X233100D01*
X260600Y215600D02*
X296100D01*
X307100Y226600*
X267100D02*
X252100D01*
X235100Y209600*
X270100Y125600D02*
X257100D01*
X288100Y118100D02*
X278100D01*
Y125600*
X270100*
X288100Y180600D02*
X409100D01*
X409600Y181100*
X505600*
Y180600*
X290100Y71100D02*
X336600D01*
X317100Y215600D02*
X355600D01*
X360600Y220600*
X373100*
X375600Y218100*
X490600*
X503100Y230600*
X570600*
X578100Y223100*
X320100Y6600D02*
X218600D01*
X320100Y33226D02*
X328726D01*
X336100Y40600*
X333100Y136100D02*
Y135600D01*
X328100Y130600*
X338100Y125600D02*
X343100D01*
X345600Y123100*
X535600*
X351100Y6600D02*
X320100D01*
X357100Y226600D02*
Y229600D01*
X360600Y233100*
X408100*
X418100Y223100*
X488100*
X500600Y235600*
X578100*
X585600Y228100*
X365600Y6600D02*
X351100D01*
X397100Y118100D02*
X288100D01*
X405600Y110600D02*
X563100D01*
X413100Y159100D02*
X412100D01*
X408600Y155600*
X340600*
X335600Y160600*
X323100*
X317100Y166600*
X420100Y176100D02*
X499600D01*
X503600Y172100*
X527100*
X528100Y173100*
X420100Y176100D02*
X417600D01*
X414600Y173100*
X478100Y118100D02*
X397100D01*
X508100Y165600D02*
X554600D01*
X510600Y188100D02*
X298100D01*
X515600Y193100D02*
X378100D01*
X517100Y6600D02*
X365600D01*
X523100Y118100D02*
X478100D01*
X534100Y197100D02*
X523100D01*
X535041Y203644D02*
X515600D01*
X535600Y173100D02*
Y178100D01*
X530600Y183100*
Y186108*
X535043Y190551*
X537787Y209658D02*
X512158D01*
X508100Y205600*
Y200600*
X505600Y198100*
X338100*
X540100Y154100D02*
X539600D01*
X536600Y151100*
X337600*
X333100Y155600*
X299100*
X296600Y158100*
X542117Y214654D02*
X509654D01*
X498100Y203100*
X330600*
X328100Y205600*
X543238Y6600D02*
X517100D01*
X543238D02*
X613100D01*
X545600Y147600D02*
X545100D01*
X543100Y145600*
X335600*
X330600Y150600*
X286600*
Y150100*
X547678Y218229D02*
Y218522D01*
X545600Y220600*
X508100*
X495600Y208100*
X350600*
X348100Y210600*
X557100Y143600D02*
X554600D01*
X551600Y140600*
X307600*
X565600Y144100D02*
Y138100D01*
X563600Y136100*
X333100*
X572538Y214656D02*
Y221162D01*
X568100Y225600*
X505600*
X493100Y213100*
X368100*
X365600Y215600*
X572542Y130600D02*
X347100D01*
X578100Y155600D02*
X555600D01*
X550600Y160600*
X520600*
X518100Y158100*
X579617Y190559D02*
X583141D01*
X598600Y175100*
Y155100*
X618100Y135600*
X585600Y70600D02*
X435600D01*
X413100Y93100*
X248100*
X611100Y188100D02*
Y187100D01*
X617100Y181100*
X624100*
Y118100D02*
X523100D01*
X631600Y6600D02*
X613100D01*
X638120Y192982D02*
X627482D01*
X624100Y189600*
X638120Y203218D02*
X623218D01*
X618100Y198100*
D02*
D118*
X27600Y60600D03*
Y188100D03*
X444100Y87100D03*
X444600Y164100D03*
X494100Y87100D03*
Y163600D03*
X558100Y198100D03*
D02*
D119*
X397100Y226600D03*
D02*
D120*
X267100Y166600D03*
Y226600D03*
X277100Y166600D03*
Y226600D03*
X287100Y166600D03*
Y226600D03*
X297100Y166600D03*
Y226600D03*
X307100Y166600D03*
Y226600D03*
X317100Y166600D03*
Y226600D03*
X327100Y166600D03*
Y226600D03*
X337100Y166600D03*
Y226600D03*
X347100Y166600D03*
Y226600D03*
X357100Y166600D03*
Y226600D03*
X367100Y166600D03*
Y226600D03*
X377100Y166600D03*
Y226600D03*
X387100Y166600D03*
Y226600D03*
X397100Y166600D03*
D02*
D121*
X290100Y33226D03*
D02*
D122*
Y63974D03*
X300100Y33226D03*
Y63974D03*
X310100Y33226D03*
Y63974D03*
X320100Y33226D03*
Y63974D03*
D02*
D123*
X218600Y33470D03*
D02*
D124*
Y64730D03*
X228600Y33470D03*
Y64730D03*
X238600Y33470D03*
Y64730D03*
X248600Y33470D03*
Y64730D03*
D02*
D125*
X638120Y192982D03*
Y195541D03*
Y198100D03*
Y200659D03*
Y203218D03*
D02*
D126*
X58100Y30600D03*
X58600Y216600D03*
X78100Y30600D03*
X78600Y216600D03*
D02*
D127*
X105600Y171600D03*
Y232624D03*
X106100Y28415D03*
Y48100D03*
X122100Y171100D03*
Y232124D03*
X126100Y17100D03*
Y83635D03*
X157600Y166565D03*
Y233100D03*
X161100Y19076D03*
Y80100D03*
X178600Y19576D03*
Y80600D03*
X191100Y212415D03*
Y232100D03*
X197600Y42415D03*
Y62100D03*
X270100Y17600D03*
Y84135D03*
X336100Y40600D03*
Y60285D03*
X351100Y20576D03*
Y81600D03*
X603100Y218100D03*
X611100Y168415D03*
X622785Y218100D03*
D02*
D128*
X140600Y172257D03*
Y232100D03*
X143600Y18002D03*
Y80600D03*
X213100Y170600D03*
Y233198D03*
X365600Y19600D03*
Y82198D03*
X426100Y33600D03*
Y53100D03*
X488698Y33600D03*
Y53100D03*
D02*
D129*
X190600Y178600D03*
Y198600D03*
X235100Y189600D03*
Y209600D03*
D02*
D130*
X173100Y178600D03*
D02*
D131*
Y224663D03*
D02*
D132*
X381100Y21883D03*
Y39600D03*
X382100Y62383D03*
Y80100D03*
X406691Y21883D03*
Y39600D03*
X407691Y62383D03*
Y80100D03*
D02*
D133*
X611100Y188100D03*
D02*
D134*
X17100Y19100D03*
X17600Y227600D03*
X22100Y24100D03*
X22600Y222600D03*
X27100Y19100D03*
X27600Y227600D03*
D02*
D135*
X517100Y30100D03*
Y40100D03*
Y50100D03*
X0Y0D02*
M02*
