G04 DesignSpark PCB Gerber Version 9.0 Build 5138 *
%FSLAX35Y35*%
%MOIN*%
%ADD15C,0.00197*%
%ADD12C,0.00394*%
%ADD14C,0.01200*%
X0Y0D02*
D02*
D12*
X47431Y51269D02*
X88769D01*
Y9931*
X47431*
Y51269*
X89269Y195931D02*
X47931D01*
Y237269*
X89269*
Y195931*
X113187Y52431D02*
Y24084D01*
X99013*
Y52431*
X113187*
X180383Y172301D02*
Y204899D01*
X200817*
Y172301*
X180383*
X198187Y236431D02*
Y208084D01*
X184013*
Y236431*
X198187*
X204687Y66431D02*
Y38084D01*
X190513*
Y66431*
X204687*
X245317Y215899D02*
Y183301D01*
X224883*
Y215899*
X245317*
X329013Y36269D02*
Y64616D01*
X343187*
Y36269*
X329013*
X374131Y46569D02*
X413659D01*
Y14915*
X374131*
Y46569*
X375131Y87069D02*
X414659D01*
Y55415*
X375131*
Y87069*
X598769Y225187D02*
X627116D01*
Y211013*
X598769*
Y225187*
X631458Y169072D02*
Y227128D01*
X667529*
Y169072*
X631458*
D02*
D14*
X3100Y35600D02*
X90600D01*
Y213100*
X3100*
Y35600*
X3600Y60600D02*
X27100D01*
X3600Y188100D02*
X27100D01*
X27600Y59600D02*
Y36100D01*
Y212100D02*
Y188600D01*
X90600Y93100D02*
X423100D01*
Y153100*
X90600*
Y93100*
X423100Y65600D02*
X515600D01*
Y185600*
X423100*
Y65600*
X444100Y87100D02*
X494100D01*
Y164100*
X444100*
Y87100*
X531100Y6600D02*
X657100D01*
Y156600*
X531100*
Y6600*
X557600Y234100D02*
G75*
G03Y159100J-37500D01*
G01*
G75*
G03Y234100J37500*
G01*
X623100Y30600D02*
Y7100D01*
D02*
D15*
X99694Y168254D02*
Y235970D01*
X111506*
Y168254*
X99694*
X116194Y167754D02*
Y235470D01*
X128006*
Y167754*
X116194*
X119899Y13754D02*
Y86982D01*
X132301*
Y13754*
X119899*
X146506Y235596D02*
Y168765D01*
X134694*
Y235596*
X146506*
X149702Y84096D02*
Y14509D01*
X137498*
Y84096*
X149702*
X163801Y236446D02*
Y163218D01*
X151399*
Y236446*
X163801*
X167006Y83446D02*
Y15730D01*
X155194*
Y83446*
X167006*
X168080Y175352D02*
Y227911D01*
X178120*
Y175352*
X168080*
X184506Y83946D02*
Y16230D01*
X172694*
Y83946*
X184506*
X206998Y167104D02*
Y236691D01*
X219202*
Y167104*
X206998*
X212616Y29631D02*
Y68569D01*
X254584*
Y29631*
X212616*
X263899Y14254D02*
Y87482D01*
X276301*
Y14254*
X263899*
X284116Y29084D02*
Y68116D01*
X326084*
Y29084*
X284116*
X357006Y84946D02*
Y17230D01*
X345194*
Y84946*
X357006*
X359498Y16104D02*
Y85691D01*
X371702*
Y16104*
X359498*
X411336Y229915D02*
Y163285D01*
X252864*
Y229915*
X411336*
X422604Y39702D02*
X492191D01*
Y27498*
X422604*
Y39702*
Y59202D02*
X492191D01*
Y46998*
X422604*
Y59202*
X611100Y155620D02*
G75*
G02Y200895J22638D01*
G01*
Y155620D02*
G75*
G02Y200895J22638D01*
G01*
G75*
G02Y155620J-22638*
G01*
X0Y0D02*
M02*
