G04 DesignSpark PCB Gerber Version 9.0 Build 5138 *
%FSLAX35Y35*%
%MOIN*%
%ADD85R,0.05449X0.05449*%
%ADD94R,0.05528X0.05528*%
%ADD83R,0.05563X0.05563*%
%ADD81R,0.05661X0.05661*%
%ADD98R,0.05724X0.05724*%
%ADD100R,0.07000X0.07000*%
%ADD87C,0.04937*%
%ADD99C,0.05331*%
%ADD86C,0.05449*%
%ADD95C,0.05528*%
%ADD84C,0.05563*%
%ADD82C,0.05661*%
%ADD91C,0.05724*%
%ADD92C,0.06020*%
%ADD93C,0.06181*%
%ADD90C,0.06819*%
%ADD97C,0.07000*%
%ADD96C,0.07063*%
%ADD88C,0.10539*%
%ADD89C,0.12205*%
%ADD80C,0.16000*%
X0Y0D02*
D02*
D80*
X27600Y60600D03*
Y188100D03*
X444100Y87100D03*
X444600Y164100D03*
X494100Y87100D03*
Y163600D03*
X558100Y198100D03*
D02*
D81*
X397100Y226600D03*
D02*
D82*
X267100Y166600D03*
Y226600D03*
X277100Y166600D03*
Y226600D03*
X287100Y166600D03*
Y226600D03*
X297100Y166600D03*
Y226600D03*
X307100Y166600D03*
Y226600D03*
X317100Y166600D03*
Y226600D03*
X327100Y166600D03*
Y226600D03*
X337100Y166600D03*
Y226600D03*
X347100Y166600D03*
Y226600D03*
X357100Y166600D03*
Y226600D03*
X367100Y166600D03*
Y226600D03*
X377100Y166600D03*
Y226600D03*
X387100Y166600D03*
Y226600D03*
X397100Y166600D03*
D02*
D83*
X290100Y33226D03*
D02*
D84*
Y63974D03*
X300100Y33226D03*
Y63974D03*
X310100Y33226D03*
Y63974D03*
X320100Y33226D03*
Y63974D03*
D02*
D85*
X218600Y33470D03*
D02*
D86*
Y64730D03*
X228600Y33470D03*
Y64730D03*
X238600Y33470D03*
Y64730D03*
X248600Y33470D03*
Y64730D03*
D02*
D87*
X534100Y197100D03*
X535041Y203644D03*
X535043Y190551D03*
X537787Y209658D03*
X537790Y184538D03*
X542117Y214654D03*
X542120Y179542D03*
X547678Y218229D03*
X547683Y175969D03*
X554021Y220092D03*
X554027Y174107D03*
X560633Y220092D03*
X560638Y174109D03*
X566976Y218230D03*
X566981Y175972D03*
X572538Y214656D03*
X572542Y179548D03*
X576868Y209660D03*
X576871Y184544D03*
X579615Y203646D03*
X579617Y190559D03*
X580557Y197103D03*
D02*
D88*
X640167Y178612D03*
Y217588D03*
D02*
D89*
X655915Y178612D03*
Y217588D03*
D02*
D90*
X58100Y30600D03*
X58600Y216600D03*
X78100Y30600D03*
X78600Y216600D03*
D02*
D91*
X105600Y171600D03*
Y232624D03*
X106100Y28415D03*
Y48100D03*
X122100Y171100D03*
Y232124D03*
X126100Y17100D03*
Y83635D03*
X157600Y166565D03*
Y233100D03*
X161100Y19076D03*
Y80100D03*
X178600Y19576D03*
Y80600D03*
X191100Y212415D03*
Y232100D03*
X197600Y42415D03*
Y62100D03*
X270100Y17600D03*
Y84135D03*
X336100Y40600D03*
Y60285D03*
X351100Y20576D03*
Y81600D03*
X603100Y218100D03*
X611100Y168415D03*
X622785Y218100D03*
D02*
D92*
X140600Y172257D03*
Y232100D03*
X143600Y18002D03*
Y80600D03*
X213100Y170600D03*
Y233198D03*
X365600Y19600D03*
Y82198D03*
X426100Y33600D03*
Y53100D03*
X488698Y33600D03*
Y53100D03*
D02*
D93*
X190600Y178600D03*
Y198600D03*
X235100Y189600D03*
Y209600D03*
D02*
D94*
X173100Y178600D03*
D02*
D95*
Y224663D03*
D02*
D96*
X381100Y21883D03*
Y39600D03*
X382100Y62383D03*
Y80100D03*
X406691Y21883D03*
Y39600D03*
X407691Y62383D03*
Y80100D03*
D02*
D97*
X543238Y30100D03*
X563238D03*
X623238D03*
X643238D03*
D02*
D98*
X611100Y188100D03*
D02*
D99*
X17100Y19100D03*
X17600Y227600D03*
X22100Y24100D03*
X22600Y222600D03*
X27100Y19100D03*
X27600Y227600D03*
D02*
D100*
X517100Y30100D03*
Y40100D03*
Y50100D03*
X0Y0D02*
M02*
