G04 DesignSpark PCB Gerber Version 9.0 Build 5138 *
%FSLAX35Y35*%
%MOIN*%
%ADD12C,0.00394*%
%ADD10C,0.00500*%
%ADD11C,0.00787*%
%ADD13C,0.01000*%
X0Y0D02*
D02*
D10*
X20261Y230421D02*
Y231671D01*
X20574Y232296*
X20887Y232609*
X21511Y232921*
X22137*
X22761Y232609*
X23074Y232296*
X23387Y231671*
Y230421*
X23074Y229796*
X22761Y229484*
X22137Y229171*
X21511*
X20887Y229484*
X20574Y229796*
X20261Y230421*
X22449Y230109D02*
X23387Y229171D01*
X25887D02*
X27137D01*
X26511D02*
Y232921D01*
X25887Y232296*
X24439Y16279D02*
Y15029D01*
X24126Y14404*
X23813Y14091*
X23189Y13779*
X22563*
X21939Y14091*
X21626Y14404*
X21313Y15029*
Y16279*
X21626Y16904*
X21939Y17216*
X22563Y17529*
X23189*
X23813Y17216*
X24126Y16904*
X24439Y16279*
X22251Y16591D02*
X21313Y17529D01*
X16939D02*
X19439D01*
X17251Y15341*
X16939Y14716*
X17251Y14091*
X17876Y13779*
X18813*
X19439Y14091*
X68100Y35287D02*
Y31537D01*
X71225*
X73725D02*
X74975D01*
X74350D02*
Y35287D01*
X73725Y34663*
X68600Y211913D02*
Y215663D01*
X65475*
X61100D02*
X63600D01*
X61413Y213475*
X61100Y212850*
X61413Y212225*
X62037Y211913*
X62975*
X63600Y212225*
X104663Y171600D02*
X100913D01*
Y173787*
X101225Y174413*
X101850Y174725*
X102475Y174413*
X102787Y173787*
Y171600*
Y173787D02*
X104663Y174725D01*
Y179100D02*
Y176600D01*
X102475Y178787*
X101850Y179100*
X101225Y178787*
X100913Y178163*
Y177225*
X101225Y176600*
X107663Y35132D02*
X107350Y35445D01*
X107037Y36070*
Y37007*
X107350Y37632*
X107663Y37945*
X108287Y38257*
X109537*
X110163Y37945*
X110475Y37632*
X110787Y37007*
Y36070*
X110475Y35445*
X110163Y35132*
X107037Y32632D02*
Y31382D01*
Y32007D02*
X110787D01*
X110163Y32632*
X121163Y171100D02*
X117413D01*
Y173287*
X117725Y173913*
X118350Y174225*
X118975Y173913*
X119287Y173287*
Y171100*
Y173287D02*
X121163Y174225D01*
X120225Y176100D02*
X119600Y176413D01*
X119287Y177037*
Y177663*
X119600Y178287*
X120225Y178600*
X120850Y178287*
X121163Y177663*
Y177037*
X120850Y176413*
X120225Y176100*
X119287*
X118350Y176413*
X117725Y177037*
X117413Y177663*
X125163Y17100D02*
X121413D01*
Y19287*
X121725Y19913*
X122350Y20225*
X122975Y19913*
X123287Y19287*
Y17100*
Y19287D02*
X125163Y20225D01*
X124850Y22100D02*
X125163Y22725D01*
Y23663*
X124850Y24287*
X124225Y24600*
X123913*
X123287Y24287*
X122975Y23663*
Y22100*
X121413*
Y24600*
X141537Y232100D02*
X145287D01*
Y229913*
X144975Y229287*
X144350Y228975*
X143725Y229287*
X143413Y229913*
Y232100*
Y229913D02*
X141537Y228975D01*
X141850Y226787D02*
X141537Y226163D01*
Y225537*
X141850Y224913*
X142475Y224600*
X143100Y224913*
X143413Y225537*
Y226163*
Y225537D02*
X143725Y224913D01*
X144350Y224600*
X144975Y224913*
X145287Y225537*
Y226163*
X144975Y226787*
X144537Y80600D02*
X148287D01*
Y78413*
X147975Y77787*
X147350Y77475*
X146725Y77787*
X146413Y78413*
Y80600*
Y78413D02*
X144537Y77475D01*
Y74975D02*
Y73725D01*
Y74350D02*
X148287D01*
X147663Y74975*
X158537Y233100D02*
X162287D01*
Y230913*
X161975Y230287*
X161350Y229975*
X160725Y230287*
X160413Y230913*
Y233100*
Y230913D02*
X158537Y229975D01*
Y226537D02*
X162287D01*
X159787Y228100*
Y225600*
X162037Y80100D02*
X165787D01*
Y77913*
X165475Y77287*
X164850Y76975*
X164225Y77287*
X163913Y77913*
Y80100*
Y77913D02*
X162037Y76975D01*
Y74163D02*
X162350Y73537D01*
X162975Y72913*
X163913Y72600*
X164850*
X165475Y72913*
X165787Y73537*
Y74163*
X165475Y74787*
X164850Y75100*
X164225Y74787*
X163913Y74163*
Y73537*
X164225Y72913*
X164850Y72600*
X172163Y178600D02*
X168413D01*
Y180475*
X168725Y181100*
X169037Y181413*
X169663Y181725*
X170913*
X171537Y181413*
X171850Y181100*
X172163Y180475*
Y178600*
Y184225D02*
Y185475D01*
Y184850D02*
X168413D01*
X169037Y184225*
X179537Y80600D02*
X183287D01*
Y78413*
X182975Y77787*
X182350Y77475*
X181725Y77787*
X181413Y78413*
Y80600*
Y78413D02*
X179537Y77475D01*
X181413Y74663D02*
Y74037D01*
X181725Y73413*
X182350Y73100*
X182975Y73413*
X183287Y74037*
Y74663*
X182975Y75287*
X182350Y75600*
X181725Y75287*
X181413Y74663*
X181100Y75287*
X180475Y75600*
X179850Y75287*
X179537Y74663*
Y74037*
X179850Y73413*
X180475Y73100*
X181100Y73413*
X181413Y74037*
X189037Y191725D02*
X189350Y191413D01*
X189663Y190787*
Y189850*
X189350Y189225*
X189037Y188913*
X188413Y188600*
X187163*
X186537Y188913*
X186225Y189225*
X185913Y189850*
Y190787*
X186225Y191413*
X186537Y191725*
X189350Y193913D02*
X189663Y194537D01*
Y195163*
X189350Y195787*
X188725Y196100*
X188100Y195787*
X187787Y195163*
Y194537*
Y195163D02*
X187475Y195787D01*
X186850Y196100*
X186225Y195787*
X185913Y195163*
Y194537*
X186225Y193913*
X192663Y219132D02*
X192350Y219445D01*
X192037Y220070*
Y221007*
X192350Y221632*
X192663Y221945*
X193287Y222257*
X194537*
X195163Y221945*
X195475Y221632*
X195787Y221007*
Y220070*
X195475Y219445*
X195163Y219132*
X192037Y215695D02*
X195787D01*
X193287Y217257*
Y214757*
X199163Y49132D02*
X198850Y49445D01*
X198537Y50070*
Y51007*
X198850Y51632*
X199163Y51945*
X199787Y52257*
X201037*
X201663Y51945*
X201975Y51632*
X202287Y51007*
Y50070*
X201975Y49445*
X201663Y49132*
X200413Y46320D02*
Y45695D01*
X200725Y45070*
X201350Y44757*
X201975Y45070*
X202287Y45695*
Y46320*
X201975Y46945*
X201350Y47257*
X200725Y46945*
X200413Y46320*
X200100Y46945*
X199475Y47257*
X198850Y46945*
X198537Y46320*
Y45695*
X198850Y45070*
X199475Y44757*
X200100Y45070*
X200413Y45695*
X212163Y170600D02*
X208413D01*
Y172787*
X208725Y173413*
X209350Y173725*
X209975Y173413*
X210287Y172787*
Y170600*
Y172787D02*
X212163Y173725D01*
Y175600D02*
X208413Y178100D01*
Y175600*
X232663Y50037D02*
Y51287D01*
Y50663D02*
X228913D01*
Y50037D02*
Y51287D01*
X232037Y57225D02*
X232350Y56913D01*
X232663Y56287*
Y55350*
X232350Y54725*
X232037Y54413*
X231413Y54100*
X230163*
X229537Y54413*
X229225Y54725*
X228913Y55350*
Y56287*
X229225Y56913*
X229537Y57225*
X232350Y59413D02*
X232663Y60037D01*
Y60663*
X232350Y61287*
X231725Y61600*
X231100Y61287*
X230787Y60663*
Y60037*
Y60663D02*
X230475Y61287D01*
X229850Y61600*
X229225Y61287*
X228913Y60663*
Y60037*
X229225Y59413*
X236663Y196475D02*
X236350Y196787D01*
X236037Y197413*
Y198350*
X236350Y198975*
X236663Y199287*
X237287Y199600*
X238537*
X239163Y199287*
X239475Y198975*
X239787Y198350*
Y197413*
X239475Y196787*
X239163Y196475*
X236037Y192100D02*
Y194600D01*
X238225Y192413*
X238850Y192100*
X239475Y192413*
X239787Y193037*
Y193975*
X239475Y194600*
X270600Y235600D02*
X270287Y236225D01*
X269663Y236537*
X269037*
X268413Y236225*
X268100Y235600*
Y235287*
X268413Y234663*
X269037Y234350*
X269663*
X270287Y234663*
X270600Y235287*
Y236537D02*
Y234037D01*
X270287Y233413*
X269663Y233100*
X268725*
X268100Y233413*
X274350Y234037D02*
Y236537D01*
Y237475D02*
X278621Y236537*
X280079D01*
X279350Y237163D02*
Y234350D01*
X279663Y234037*
X279975*
X280287Y234350*
X283100Y234037D02*
Y237787D01*
Y235600D02*
X283413Y236225D01*
X284037Y236537*
X284663*
X285287Y236225*
X285600Y235600*
Y234037*
X288100Y236537D02*
Y234975D01*
X288413Y234350*
X289037Y234037*
X289663*
X290287Y234350*
X290600Y234975*
Y236537D02*
Y234037D01*
X293100Y234975D02*
X293413Y234350D01*
X294037Y234037*
X294663*
X295287Y234350*
X295600Y234975*
Y235600*
X295287Y236225*
X294663Y236537*
X294037*
X293413Y236225*
X293100Y235600*
Y234037D02*
Y237787D01*
X298413Y234037D02*
X298725Y234350D01*
X298413Y234663*
X298100Y234350*
X298413Y234037*
X305600Y236225D02*
X304975Y236537D01*
X304037*
X303413Y236225*
X303100Y235600*
Y234975*
X303413Y234350*
X304037Y234037*
X304975*
X305600Y234350*
X308100Y234975D02*
X308413Y234350D01*
X309037Y234037*
X309663*
X310287Y234350*
X310600Y234975*
Y235600*
X310287Y236225*
X309663Y236537*
X309037*
X308413Y236225*
X308100Y235600*
Y234975*
X313100Y234037D02*
Y236537D01*
Y236225D02*
X313413Y236537D01*
X314037*
X314350Y236225*
Y235287*
Y236225D02*
X314663Y236537D01*
X315287*
X315600Y236225*
Y234037*
X318100D02*
X321225Y237787D01*
X323100Y234037D02*
X324663Y237787D01*
X326225Y234037*
X323725Y235600D02*
X325600D01*
X329663Y234037D02*
X329350D01*
Y237787*
X335600Y234350D02*
X335287Y234037D01*
X334663*
X334037*
X333413Y234350*
X333100Y234975*
Y235913*
X333413Y236225*
X334037Y236537*
X334663*
X335287Y236225*
X335600Y235913*
Y235600*
X335287Y235287*
X334663Y234975*
X334037*
X333413Y235287*
X333100Y235600*
X338100Y234037D02*
X340600Y236537D01*
Y234037D02*
X338100Y236537D01*
X343100Y235287D02*
X345600D01*
X348100Y234037D02*
Y237787D01*
Y235913D02*
X351225D01*
Y234037D02*
Y237787D01*
X353100Y236225D02*
X353725Y236537D01*
X354663*
X355287Y236225*
X355600Y235600*
Y234663*
X355287Y234350*
X354663Y234037*
X354037*
X353413Y234350*
X353100Y234663*
Y234975*
X353413Y235287*
X354037Y235600*
X354663*
X355287Y235287*
X355600Y234975*
Y234663D02*
Y234037D01*
X359663D02*
X359350D01*
Y237787*
X364663Y234037D02*
X364350D01*
Y237787*
X368100Y235287D02*
X370600D01*
X373100Y234037D02*
Y237787D01*
X374975*
X375600Y237475*
X375913Y237163*
X376225Y236537*
Y235287*
X375913Y234663*
X375600Y234350*
X374975Y234037*
X373100*
X378100Y236225D02*
X378725Y236537D01*
X379663*
X380287Y236225*
X380600Y235600*
Y234663*
X380287Y234350*
X379663Y234037*
X379037*
X378413Y234350*
X378100Y234663*
Y234975*
X378413Y235287*
X379037Y235600*
X379663*
X380287Y235287*
X380600Y234975*
Y234663D02*
Y234037D01*
X383621Y236537D02*
X385079D01*
X384350Y237163D02*
Y234350D01*
X384663Y234037*
X384975*
X385287Y234350*
X388100Y236225D02*
X388725Y236537D01*
X389663*
X390287Y236225*
X390600Y235600*
Y234663*
X390287Y234350*
X389663Y234037*
X389037*
X388413Y234350*
X388100Y234663*
Y234975*
X388413Y235287*
X389037Y235600*
X389663*
X390287Y235287*
X390600Y234975*
Y234663D02*
Y234037D01*
X269163Y17600D02*
X265413D01*
Y19787*
X265725Y20413*
X266350Y20725*
X266975Y20413*
X267287Y19787*
Y17600*
Y19787D02*
X269163Y20725D01*
Y23225D02*
Y24475D01*
Y23850D02*
X265413D01*
X266037Y23225*
X268850Y27913D02*
X269163Y28537D01*
Y29163*
X268850Y29787*
X268225Y30100*
X266350*
X265725Y29787*
X265413Y29163*
Y28537*
X265725Y27913*
X266350Y27600*
X268225*
X268850Y27913*
X265725Y29787*
X304163Y49537D02*
Y50787D01*
Y50163D02*
X300413D01*
Y49537D02*
Y50787D01*
X303537Y56725D02*
X303850Y56413D01*
X304163Y55787*
Y54850*
X303850Y54225*
X303537Y53913*
X302913Y53600*
X301663*
X301037Y53913*
X300725Y54225*
X300413Y54850*
Y55787*
X300725Y56413*
X301037Y56725*
X304163Y61100D02*
Y58600D01*
X301975Y60787*
X301350Y61100*
X300725Y60787*
X300413Y60163*
Y59225*
X300725Y58600*
X333037Y195663D02*
Y194413D01*
Y195037D02*
X336787D01*
Y195663D02*
Y194413D01*
X333663Y188475D02*
X333350Y188787D01*
X333037Y189413*
Y190350*
X333350Y190975*
X333663Y191287*
X334287Y191600*
X335537*
X336163Y191287*
X336475Y190975*
X336787Y190350*
Y189413*
X336475Y188787*
X336163Y188475*
X333037Y185975D02*
Y184725D01*
Y185350D02*
X336787D01*
X336163Y185975*
X334537Y53568D02*
X334850Y53255D01*
X335163Y52630*
Y51693*
X334850Y51068*
X334537Y50755*
X333913Y50443*
X332663*
X332037Y50755*
X331725Y51068*
X331413Y51693*
Y52630*
X331725Y53255*
X332037Y53568*
X334850Y55443D02*
X335163Y56068D01*
Y57005*
X334850Y57630*
X334225Y57943*
X333913*
X333287Y57630*
X332975Y57005*
Y55443*
X331413*
Y57943*
X352037Y81600D02*
X355787D01*
Y79413*
X355475Y78787*
X354850Y78475*
X354225Y78787*
X353913Y79413*
Y81600*
Y79413D02*
X352037Y78475D01*
Y75975D02*
Y74725D01*
Y75350D02*
X355787D01*
X355163Y75975*
X352037Y70037D02*
X355787D01*
X353287Y71600*
Y69100*
X356537Y9037D02*
X357787D01*
X357163D02*
Y12787D01*
X356537D02*
X357787D01*
X360600Y9037D02*
Y12787D01*
X363725Y9037*
Y12787*
X365600Y10287D02*
X368100D01*
X371225Y9037D02*
X372475D01*
X371850D02*
Y12787D01*
X371225Y12163*
X376537Y10913D02*
X377163D01*
X377787Y11225*
X378100Y11850*
X377787Y12475*
X377163Y12787*
X376537*
X375913Y12475*
X375600Y11850*
X375913Y11225*
X376537Y10913*
X375913Y10600*
X375600Y9975*
X375913Y9350*
X376537Y9037*
X377163*
X377787Y9350*
X378100Y9975*
X377787Y10600*
X377163Y10913*
X385600Y12787D02*
X387163Y9037D01*
X388725Y12787*
X390600Y9037D02*
Y12787D01*
X393725*
X393100Y10913D02*
X390600D01*
X395600Y9037D02*
Y12787D01*
X397475*
X398100Y12475*
X398413Y12163*
X398725Y11537*
Y10287*
X398413Y9663*
X398100Y9350*
X397475Y9037*
X395600*
X407163D02*
Y12787D01*
X405600D02*
X408725D01*
X410600Y11537D02*
Y9975D01*
X410913Y9350*
X411537Y9037*
X412163*
X412787Y9350*
X413100Y9975*
Y11537D02*
Y9037D01*
X415600D02*
Y11537D01*
Y10600D02*
X415913Y11225D01*
X416537Y11537*
X417163*
X417787Y11225*
X418100Y10600*
Y9037*
X421850D02*
Y11537D01*
Y12475D02*
X425600Y9037*
Y11537D01*
Y10600D02*
X425913Y11225D01*
X426537Y11537*
X427163*
X427787Y11225*
X428100Y10600*
Y9037*
X433100Y10600D02*
X432787Y11225D01*
X432163Y11537*
X431537*
X430913Y11225*
X430600Y10600*
Y10287*
X430913Y9663*
X431537Y9350*
X432163*
X432787Y9663*
X433100Y10287*
Y11537D02*
Y9037D01*
X432787Y8413*
X432163Y8100*
X431225*
X430600Y8413*
X440600Y9037D02*
Y12787D01*
X443725*
X443100Y10913D02*
X440600D01*
X445600Y9975D02*
X445913Y9350D01*
X446537Y9037*
X447163*
X447787Y9350*
X448100Y9975*
Y10600*
X447787Y11225*
X447163Y11537*
X446537*
X445913Y11225*
X445600Y10600*
Y9975*
X450600Y9037D02*
Y11537D01*
Y10600D02*
X450913Y11225D01*
X451537Y11537*
X452163*
X452787Y11225*
X455600Y9037D02*
Y12787D01*
Y10287D02*
X456537D01*
X458100Y11537*
X456537Y10287D02*
X458100Y9037D01*
X468725Y9663D02*
X468413Y9350D01*
X467787Y9037*
X466850*
X466225Y9350*
X465913Y9663*
X465600Y10287*
Y11537*
X465913Y12163*
X466225Y12475*
X466850Y12787*
X467787*
X468413Y12475*
X468725Y12163*
X472163Y9037D02*
X471850D01*
Y12787*
X475600Y9975D02*
X475913Y9350D01*
X476537Y9037*
X477163*
X477787Y9350*
X478100Y9975*
Y10600*
X477787Y11225*
X477163Y11537*
X476537*
X475913Y11225*
X475600Y10600*
Y9975*
X483100Y11225D02*
X482475Y11537D01*
X481537*
X480913Y11225*
X480600Y10600*
Y9975*
X480913Y9350*
X481537Y9037*
X482475*
X483100Y9350*
X485600Y9037D02*
Y12787D01*
Y10287D02*
X486537D01*
X488100Y11537*
X486537Y10287D02*
X488100Y9037D01*
X495600D02*
Y11537D01*
Y10600D02*
X495913Y11225D01*
X496537Y11537*
X497163*
X497787Y11225*
X503100Y9350D02*
X502787Y9037D01*
X502163*
X501537*
X500913Y9350*
X500600Y9975*
Y10913*
X500913Y11225*
X501537Y11537*
X502163*
X502787Y11225*
X503100Y10913*
Y10600*
X502787Y10287*
X502163Y9975*
X501537*
X500913Y10287*
X500600Y10600*
X505600Y11537D02*
X506850Y9037D01*
X508100Y11537*
X516225Y9037D02*
X517475D01*
X516850D02*
Y12787D01*
X516225Y12163*
X364663Y19600D02*
X360913D01*
Y21787*
X361225Y22413*
X361850Y22725*
X362475Y22413*
X362787Y21787*
Y19600*
Y21787D02*
X364663Y22725D01*
Y25225D02*
Y26475D01*
Y25850D02*
X360913D01*
X361537Y25225*
X364663Y30225D02*
Y31475D01*
Y30850D02*
X360913D01*
X361537Y30225*
X393895Y32617D02*
X394208Y31992D01*
X394833Y31679*
X396083*
X396708Y31992*
X397020Y32617*
X396708Y33242*
X396083Y33554*
X394833*
X394208Y33867*
X393895Y34492*
X394208Y35117*
X394833Y35429*
X396083*
X396708Y35117*
X397020Y34492*
X399520Y31679D02*
X400770D01*
X400145D02*
Y35429D01*
X399520Y34804*
X394895Y73117D02*
X395208Y72492D01*
X395833Y72179*
X397083*
X397708Y72492*
X398020Y73117*
X397708Y73742*
X397083Y74054*
X395833*
X395208Y74367*
X394895Y74992*
X395208Y75617*
X395833Y75929*
X397083*
X397708Y75617*
X398020Y74992*
X402395Y72179D02*
X399895D01*
X402083Y74367*
X402395Y74992*
X402083Y75617*
X401458Y75929*
X400520*
X399895Y75617*
X426100Y34537D02*
Y38287D01*
X428287*
X428913Y37975*
X429225Y37350*
X428913Y36725*
X428287Y36413*
X426100*
X428287D02*
X429225Y34537D01*
X431725D02*
X432975D01*
X432350D02*
Y38287D01*
X431725Y37663*
X436413Y34850D02*
X437037Y34537D01*
X437663*
X438287Y34850*
X438600Y35475*
X438287Y36100*
X437663Y36413*
X437037*
X437663D02*
X438287Y36725D01*
X438600Y37350*
X438287Y37975*
X437663Y38287*
X437037*
X436413Y37975*
X426100Y54037D02*
Y57787D01*
X428287*
X428913Y57475*
X429225Y56850*
X428913Y56225*
X428287Y55913*
X426100*
X428287D02*
X429225Y54037D01*
X431725D02*
X432975D01*
X432350D02*
Y57787D01*
X431725Y57163*
X438600Y54037D02*
X436100D01*
X438287Y56225*
X438600Y56850*
X438287Y57475*
X437663Y57787*
X436725*
X436100Y57475*
X493100Y39975D02*
X493413Y39350D01*
X494037Y39037*
X495287*
X495913Y39350*
X496225Y39975*
X495913Y40600*
X495287Y40913*
X494037*
X493413Y41225*
X493100Y41850*
X493413Y42475*
X494037Y42787*
X495287*
X495913Y42475*
X496225Y41850*
X498100Y40287D02*
Y41537D01*
X498413Y42163*
X498725Y42475*
X499350Y42787*
X499975*
X500600Y42475*
X500913Y42163*
X501225Y41537*
Y40287*
X500913Y39663*
X500600Y39350*
X499975Y39037*
X499350*
X498725Y39350*
X498413Y39663*
X498100Y40287*
X500287Y39975D02*
X501225Y39037D01*
X497787Y30600D02*
X498725D01*
Y30287*
X498413Y29663*
X498100Y29350*
X497475Y29037*
X496850*
X496225Y29350*
X495913Y29663*
X495600Y30287*
Y31537*
X495913Y32163*
X496225Y32475*
X496850Y32787*
X497475*
X498100Y32475*
X498413Y32163*
X498725Y31537*
X500600Y29037D02*
Y32787D01*
X503725Y29037*
Y32787*
X505600Y29037D02*
Y32787D01*
X507475*
X508100Y32475*
X508413Y32163*
X508725Y31537*
Y30287*
X508413Y29663*
X508100Y29350*
X507475Y29037*
X505600*
X495600Y49975D02*
X495913Y49350D01*
X496537Y49037*
X497787*
X498413Y49350*
X498725Y49975*
X498413Y50600*
X497787Y50913*
X496537*
X495913Y51225*
X495600Y51850*
X495913Y52475*
X496537Y52787*
X497787*
X498413Y52475*
X498725Y51850*
X501537Y49037D02*
X502787D01*
X502163D02*
Y52787D01*
X501537D02*
X502787D01*
X505600Y49037D02*
Y52787D01*
X508725Y49037*
Y52787*
X527621Y191862D02*
G75*
G03Y202338I29707J5238D01*
G01*
X523684*
Y191862*
X527621*
X538100Y35600D02*
X648600D01*
Y24600*
X540600*
X538100Y27100*
Y35600*
X560600Y195913D02*
Y198725D01*
X560287Y199350*
X559663Y199663*
X558413*
X557787Y199350*
X557475Y198725*
Y195913*
X554975Y199663D02*
X553725D01*
X554350D02*
Y195913D01*
X554975Y196537*
X612663Y184975D02*
X612350Y185287D01*
X612037Y185913*
Y186850*
X612350Y187475*
X612663Y187787*
X613287Y188100*
X614537*
X615163Y187787*
X615475Y187475*
X615787Y186850*
Y185913*
X615475Y185287*
X615163Y184975*
X612037Y183100D02*
X615787Y180600D01*
Y183100*
X616068Y219663D02*
X615755Y219350D01*
X615130Y219037*
X614193*
X613568Y219350*
X613255Y219663*
X612943Y220287*
Y221537*
X613255Y222163*
X613568Y222475*
X614193Y222787*
X615130*
X615755Y222475*
X616068Y222163*
X617943Y219975D02*
X618255Y220600D01*
X618880Y220913*
X619505*
X620130Y220600*
X620443Y219975*
X620130Y219350*
X619505Y219037*
X618880*
X618255Y219350*
X617943Y219975*
Y220913*
X618255Y221850*
X618880Y222475*
X619505Y222787*
X647931Y198100D02*
X648244Y198413D01*
X648556Y199037*
X648244Y199663*
X647931Y199975*
X644806*
Y200600*
Y199975D02*
Y198725D01*
X648556Y203725D02*
Y204975D01*
Y204350D02*
X644806D01*
X645431Y203725*
D02*
D11*
X101072Y189710D02*
Y214513D01*
X110128*
Y189710*
X101072*
X105600Y175340D02*
Y189710D01*
Y214513D02*
Y228883D01*
X117572Y189210D02*
Y214013D01*
X126628*
Y189210*
X117572*
X121277Y36391D02*
Y64344D01*
X130923*
Y36391*
X121277*
X122100Y174840D02*
Y189210D01*
Y214013D02*
Y228383D01*
X126100Y20840D02*
Y36391D01*
Y64344D02*
Y79895D01*
X140600Y190368D02*
Y176147D01*
Y228210D02*
Y213990D01*
X143600Y36899D02*
Y21891D01*
Y76710D02*
Y61702D01*
X145128Y213990D02*
Y190368D01*
X136072*
Y213990*
X145128*
X148324Y61702D02*
Y36899D01*
X138876*
Y61702*
X148324*
X157600Y185856D02*
Y170305D01*
Y229360D02*
Y213809D01*
X161100Y37187D02*
Y22817D01*
Y76360D02*
Y61990D01*
X162423Y213809D02*
Y185856D01*
X152777*
Y213809*
X162423*
X165628Y61990D02*
Y37187D01*
X156572*
Y61990*
X165628*
X169458Y193265D02*
Y209998D01*
X176742*
Y193265*
X169458*
Y196907D02*
X173100Y193265D01*
Y182242*
Y209998D02*
Y221021D01*
X178600Y37687D02*
Y23317D01*
Y76860D02*
Y62490D01*
X183128D02*
Y37687D01*
X174072*
Y62490*
X183128*
X208376Y189498D02*
Y214301D01*
X217824*
Y189498*
X208376*
X213100Y174490D02*
Y189498D01*
Y214301D02*
Y229309D01*
X213600Y31246D02*
Y62092D01*
X253600Y36108D02*
Y62092D01*
X253848Y225600D02*
Y167600D01*
X265277Y36891D02*
Y64844D01*
X274923*
Y36891*
X265277*
X270100Y21340D02*
Y36891D01*
Y64844D02*
Y80395D01*
X285100Y30943D02*
Y62600D01*
X325100Y34600D02*
Y62600D01*
X351100Y38687D02*
Y24317D01*
Y77860D02*
Y63490D01*
X355628D02*
Y38687D01*
X346572*
Y63490*
X355628*
X360876Y38498D02*
Y63301D01*
X370324*
Y38498*
X360876*
X365600Y23490D02*
Y38498D01*
Y63301D02*
Y78309D01*
X410352Y228931D02*
Y167600D01*
X429990Y33600D02*
X444998D01*
X429990Y53100D02*
X444998D01*
Y38324D02*
X469801D01*
Y28876*
X444998*
Y38324*
Y57824D02*
X469801D01*
Y48376*
X444998*
Y57824*
X469801Y33600D02*
X484809D01*
X469801Y53100D02*
X484809D01*
X611100Y157588D02*
G75*
G02Y198927J20669D01*
G01*
Y157588D02*
G75*
G02Y198927J20669D01*
G01*
G75*
G02Y157588J-20669*
G01*
X633671Y192982D02*
G75*
G03X634458I394D01*
G01*
X633671D02*
G75*
G02X634458I394D01*
G01*
D02*
D12*
X8998Y227801D02*
G75*
G02X8706I-146D01*
G01*
X8998D02*
G75*
G02X8706I-146D01*
G01*
G75*
G02X8998I146*
G01*
X10604Y19100D02*
G75*
G02X33596I11496D01*
G01*
X10604D02*
G75*
G02X33596I11496D01*
G01*
G75*
G02X10604I-11496*
G01*
X14159Y235596D02*
X13175Y236580D01*
X14336Y237742*
X15419Y236659*
X30541Y11104D02*
X31525Y10120D01*
X30364Y8958*
X29281Y10041*
X34096Y227600D02*
G75*
G02X11104I-11496D01*
G01*
X34096D02*
G75*
G02X11104I-11496D01*
G01*
G75*
G02X34096I11496*
G01*
X35702Y18899D02*
G75*
G02X35994I146D01*
G01*
X35702D02*
G75*
G02X35994I146D01*
G01*
G75*
G02X35702I-146*
G01*
X51368Y30600D02*
X51868Y216600*
G75*
G03X85332I16732D01*
G01*
X51868D02*
G75*
G02X85332I16732D01*
G01*
X84832Y30600D02*
G75*
G03X51368I-16732D01*
G01*
X84832D02*
G75*
G02X51368I-16732D01*
G01*
X85332Y216600D02*
X102163Y46131*
X100982D01*
Y30383*
X102163*
X110037Y46131D02*
X111218D01*
Y30383*
X110037*
X184320Y178600D02*
Y198600D01*
X187163Y230131D02*
X185982D01*
Y214383*
X187163*
X193663Y60131D02*
X192482D01*
Y44383*
X193663*
X195037Y230131D02*
X196218D01*
Y214383*
X195037*
X196880Y178600D02*
Y198600D01*
X201537Y60131D02*
X202718D01*
Y44383*
X201537*
X228820Y209600D02*
Y189600D01*
X241380Y209600D02*
Y189600D01*
X332163Y42569D02*
X330982D01*
Y58317*
X332163*
X340037Y42569D02*
X341218D01*
Y58317*
X340037*
X382084Y34679D02*
X382104Y26805D01*
X382084Y34679D02*
X382104Y26805*
X383084Y75179*
X383104Y67305D01*
X383084Y75179D02*
X383104Y67305*
X386021Y18931*
X401769D01*
X386021Y42553D02*
X401769D01*
X387021Y59431D02*
X402769D01*
X387021Y83053D02*
X402769D01*
X405687Y34679D02*
X405706Y26805D01*
X405687Y34679D02*
X406687Y75179*
X406706Y67305D01*
X406687Y75179D02*
X605069Y214163*
Y212982D01*
X620817*
Y214163*
X605069Y222037D02*
Y223218D01*
X620817*
Y222037*
X645876Y182352D02*
X649813D01*
X645876Y213848D02*
X649813D01*
X661624Y182352D02*
X663592D01*
Y213848*
X661624*
D02*
D13*
X512100Y55100D02*
Y25100D01*
X522100*
Y55100*
X512100*
X0Y0D02*
M02*
